<mxfile host="65bd71144e">
    <diagram id="YuyrJRFU8XaIwaTsoD4v" name="Page-1">
        <mxGraphModel dx="1139" dy="747" grid="1" gridSize="10" guides="1" tooltips="1" connect="1" arrows="1" fold="1" page="1" pageScale="1" pageWidth="850" pageHeight="1100" math="0" shadow="0">
            <root>
                <mxCell id="0"/>
                <mxCell id="1" parent="0"/>
                <mxCell id="33" value="" style="rounded=0;whiteSpace=wrap;html=1;fillStyle=solid;strokeColor=#FFFFFF;fillColor=default;" parent="1" vertex="1">
                    <mxGeometry x="520" y="490" width="160" height="350" as="geometry"/>
                </mxCell>
                <mxCell id="2" value="&lt;h1&gt;Interaction Handling&lt;/h1&gt;&lt;p&gt;The system used by the Game for giving any object (especially player) for giving options for interaction between objects.&lt;br&gt;&lt;/p&gt;" style="text;html=1;strokeColor=none;fillColor=none;spacing=5;spacingTop=-20;whiteSpace=wrap;overflow=hidden;rounded=0;" parent="1" vertex="1">
                    <mxGeometry x="110" y="130" width="245" height="120" as="geometry"/>
                </mxCell>
                <mxCell id="3" value="&lt;h1&gt;Interaction Receiver (Interface)&lt;/h1&gt;&lt;p&gt;For an object to become an &quot;entry-point&quot; for interaction trigger, the target object needs a receiver component (InteractableInterface).&lt;/p&gt;&lt;p&gt;The actor for the interaction (InteractionHandler) gives events for interaction triggers to closest receiver (InteractableInterface).&lt;/p&gt;" style="text;html=1;strokeColor=none;fillColor=none;spacing=5;spacingTop=-20;whiteSpace=wrap;overflow=hidden;rounded=0;" parent="1" vertex="1">
                    <mxGeometry x="110" y="350" width="250" height="200" as="geometry"/>
                </mxCell>
                <mxCell id="4" value="&lt;h1&gt;Interaction Area&lt;/h1&gt;&lt;p&gt;The area, which is a trigger physics body, will register all potential objects that will be used by the handler for interactions.&lt;/p&gt;" style="text;html=1;strokeColor=none;fillColor=none;spacing=5;spacingTop=-20;whiteSpace=wrap;overflow=hidden;rounded=0;" parent="1" vertex="1">
                    <mxGeometry x="950" y="120" width="245" height="120" as="geometry"/>
                </mxCell>
                <mxCell id="5" value="" style="rounded=0;whiteSpace=wrap;html=1;fillColor=#E6FA32;fillStyle=cross-hatch;" parent="1" vertex="1">
                    <mxGeometry x="950" y="270" width="350" height="170" as="geometry"/>
                </mxCell>
                <mxCell id="10" value="" style="edgeStyle=none;html=1;" parent="1" source="6" target="8" edge="1">
                    <mxGeometry relative="1" as="geometry"/>
                </mxCell>
                <mxCell id="6" value="" style="rounded=0;whiteSpace=wrap;html=1;fillStyle=auto;fillColor=#1F1F1F;" parent="1" vertex="1">
                    <mxGeometry x="980" y="490" width="70" height="60" as="geometry"/>
                </mxCell>
                <mxCell id="8" value="" style="rounded=0;whiteSpace=wrap;html=1;fillStyle=auto;fillColor=#1F1F1F;dashed=1;" parent="1" vertex="1">
                    <mxGeometry x="980" y="350" width="70" height="60" as="geometry"/>
                </mxCell>
                <mxCell id="13" value="" style="edgeStyle=none;html=1;" parent="1" source="11" target="12" edge="1">
                    <mxGeometry relative="1" as="geometry"/>
                </mxCell>
                <mxCell id="11" value="" style="rounded=0;whiteSpace=wrap;html=1;fillStyle=auto;fillColor=#1F1F1F;" parent="1" vertex="1">
                    <mxGeometry x="1090" y="350" width="70" height="60" as="geometry"/>
                </mxCell>
                <mxCell id="12" value="" style="rounded=0;whiteSpace=wrap;html=1;fillStyle=auto;fillColor=#1F1F1F;dashed=1;" parent="1" vertex="1">
                    <mxGeometry x="1090" y="490" width="70" height="60" as="geometry"/>
                </mxCell>
                <mxCell id="17" value="" style="rounded=0;whiteSpace=wrap;html=1;fillStyle=auto;fillColor=#1F1F1F;" parent="1" vertex="1">
                    <mxGeometry x="1195" y="350" width="70" height="60" as="geometry"/>
                </mxCell>
                <mxCell id="18" value="Object entered&lt;br&gt;(trigger event)" style="text;html=1;strokeColor=none;fillColor=none;align=center;verticalAlign=middle;whiteSpace=wrap;rounded=0;dashed=1;fillStyle=auto;" parent="1" vertex="1">
                    <mxGeometry x="962.5" y="560" width="105" height="30" as="geometry"/>
                </mxCell>
                <mxCell id="19" value="Object exited&lt;br&gt;(trigger event)" style="text;html=1;strokeColor=none;fillColor=none;align=center;verticalAlign=middle;whiteSpace=wrap;rounded=0;dashed=1;fillStyle=auto;" parent="1" vertex="1">
                    <mxGeometry x="1072.5" y="560" width="105" height="30" as="geometry"/>
                </mxCell>
                <mxCell id="20" value="Object still registered" style="text;html=1;strokeColor=none;fillColor=none;align=center;verticalAlign=middle;whiteSpace=wrap;rounded=0;dashed=1;fillStyle=auto;" parent="1" vertex="1">
                    <mxGeometry x="1300" y="360" width="105" height="30" as="geometry"/>
                </mxCell>
                <mxCell id="21" value="" style="rounded=0;whiteSpace=wrap;html=1;fillStyle=cross-hatch;fillColor=#D0D615;" parent="1" vertex="1">
                    <mxGeometry x="480" y="315" width="240" height="40" as="geometry"/>
                </mxCell>
                <mxCell id="22" value="Actor&lt;br&gt;(InteractionHandler)" style="shape=umlActor;verticalLabelPosition=bottom;verticalAlign=top;html=1;outlineConnect=0;" parent="1" vertex="1">
                    <mxGeometry x="450" y="315" width="30" height="60" as="geometry"/>
                </mxCell>
                <mxCell id="23" value="" style="rounded=0;whiteSpace=wrap;html=1;fillStyle=solid;fillColor=default;dashed=1;strokeColor=#F00A0A;" parent="1" vertex="1">
                    <mxGeometry x="510" y="275" width="40" height="60" as="geometry"/>
                </mxCell>
                <mxCell id="24" value="" style="endArrow=none;html=1;" parent="1" source="23" target="25" edge="1">
                    <mxGeometry width="50" height="50" relative="1" as="geometry">
                        <mxPoint x="580" y="395" as="sourcePoint"/>
                        <mxPoint x="520" y="195" as="targetPoint"/>
                    </mxGeometry>
                </mxCell>
                <mxCell id="25" value="Ignore/Pass" style="text;html=1;strokeColor=none;fillColor=none;align=center;verticalAlign=middle;whiteSpace=wrap;rounded=0;dashed=1;fillStyle=solid;" parent="1" vertex="1">
                    <mxGeometry x="480" y="225" width="60" height="30" as="geometry"/>
                </mxCell>
                <mxCell id="26" value="" style="rounded=0;whiteSpace=wrap;html=1;fillStyle=solid;fillColor=default;strokeColor=#2EF007;" parent="1" vertex="1">
                    <mxGeometry x="580" y="275" width="40" height="60" as="geometry"/>
                </mxCell>
                <mxCell id="27" value="" style="rounded=0;whiteSpace=wrap;html=1;fillStyle=solid;fillColor=default;strokeColor=#F0A432;" parent="1" vertex="1">
                    <mxGeometry x="650" y="275" width="40" height="60" as="geometry"/>
                </mxCell>
                <mxCell id="28" value="" style="endArrow=none;html=1;" parent="1" source="26" target="29" edge="1">
                    <mxGeometry width="50" height="50" relative="1" as="geometry">
                        <mxPoint x="580" y="335" as="sourcePoint"/>
                        <mxPoint x="610" y="235" as="targetPoint"/>
                    </mxGeometry>
                </mxCell>
                <mxCell id="29" value="Intraction Focus" style="text;html=1;strokeColor=none;fillColor=none;align=center;verticalAlign=middle;whiteSpace=wrap;rounded=0;fillStyle=solid;" parent="1" vertex="1">
                    <mxGeometry x="580" y="220" width="60" height="30" as="geometry"/>
                </mxCell>
                <mxCell id="38" value="" style="edgeStyle=none;html=1;" parent="1" source="30" target="32" edge="1">
                    <mxGeometry relative="1" as="geometry"/>
                </mxCell>
                <mxCell id="30" value="InteractableInterface&lt;br&gt;(receiver)" style="rounded=0;whiteSpace=wrap;html=1;fillStyle=solid;strokeColor=#FFFFFF;fillColor=default;" parent="1" vertex="1">
                    <mxGeometry x="540" y="650" width="120" height="60" as="geometry"/>
                </mxCell>
                <mxCell id="32" value="Trigger Object&lt;br&gt;(ex. Sequence, Dialogue)" style="rounded=0;whiteSpace=wrap;html=1;fillStyle=solid;strokeColor=#FFFFFF;fillColor=default;" parent="1" vertex="1">
                    <mxGeometry x="540" y="750" width="120" height="60" as="geometry"/>
                </mxCell>
                <mxCell id="34" value="Trigger Flow" style="text;html=1;strokeColor=none;fillColor=none;align=center;verticalAlign=middle;whiteSpace=wrap;rounded=0;fillStyle=solid;" parent="1" vertex="1">
                    <mxGeometry x="570" y="500" width="60" height="30" as="geometry"/>
                </mxCell>
                <mxCell id="37" value="" style="edgeStyle=none;html=1;" parent="1" source="36" target="30" edge="1">
                    <mxGeometry relative="1" as="geometry"/>
                </mxCell>
                <mxCell id="36" value="InteractionHandler&lt;br&gt;(actor)" style="rounded=0;whiteSpace=wrap;html=1;fillStyle=solid;strokeColor=#FFFFFF;fillColor=default;" parent="1" vertex="1">
                    <mxGeometry x="540" y="540" width="120" height="60" as="geometry"/>
                </mxCell>
            </root>
        </mxGraphModel>
    </diagram>
</mxfile>